<?xml version="1.0" encoding="UTF-8"?>
<svg id="Layer_2" data-name="Layer 2" xmlns="http://www.w3.org/2000/svg" viewBox="0 0 127.52 136.44">
  <defs>
    <style>
      .cls-1 {
        fill: #13322b;
      }

      .cls-1, .cls-2, .cls-3 {
        stroke-width: 0px;
      }

      .cls-2 {
        fill: #17bc2e;
      }

      .cls-3 {
        fill: #ffb600;
      }
    </style>
  </defs>
  <g id="Layer_1-2" data-name="Layer 1">
    <g>
      <path class="cls-3" d="m36.87,29.28l-10.6-10.6c-2.09-2.1-5.49-2.1-7.59,0-1.07,1.07-1.6,2.48-1.58,3.88.02,1.35.55,2.69,1.57,3.71l10.59,10.6c1.03,1.03,2.43,1.6,3.89,1.58h.18c1.33-.08,2.58-.62,3.52-1.57,1.01-1.02,1.57-2.36,1.57-3.8,0-1.43-.56-2.78-1.56-3.79Z"/>
      <path class="cls-3" d="m58.31,5.42l.16,14.99c.03,2.96,2.46,5.34,5.42,5.31,1.51-.02,2.87-.65,3.84-1.67.93-.98,1.49-2.3,1.48-3.75l-.16-14.98c-.02-1.46-.62-2.84-1.68-3.85l-.13-.13C66.24.47,64.96-.02,63.62,0c-1.43.02-2.78.59-3.78,1.62-.99,1.02-1.55,2.38-1.54,3.8Z"/>
      <path class="cls-3" d="m90.62,29.11l10.79-10.4c2.13-2.06,5.53-1.99,7.59.14,1.05,1.09,1.55,2.51,1.5,3.91-.05,1.35-.6,2.68-1.64,3.68l-10.79,10.4c-1.05,1.01-2.46,1.55-3.92,1.5h-.18c-1.33-.1-2.57-.68-3.49-1.64-.99-1.03-1.53-2.39-1.5-3.83.03-1.43.61-2.77,1.63-3.76Z"/>
      <path class="cls-3" d="m107.17,58.38l14.99.03c2.96,0,5.36,2.41,5.36,5.38,0,1.51-.63,2.88-1.64,3.85-.97.94-2.29,1.51-3.74,1.51l-14.98-.02c-1.46,0-2.85-.6-3.86-1.65l-.13-.13c-.89-.99-1.38-2.27-1.38-3.6,0-1.43.57-2.78,1.59-3.79,1.01-1,2.36-1.57,3.79-1.57Z"/>
      <path class="cls-3" d="m5.38,58.38l14.99.03c2.96,0,5.36,2.41,5.36,5.38,0,1.51-.63,2.88-1.64,3.85-.97.94-2.29,1.51-3.74,1.51l-14.98-.02c-1.46,0-2.85-.6-3.86-1.65l-.13-.13C.49,66.35,0,65.07,0,63.74c0-1.43.57-2.78,1.59-3.79,1.01-1,2.36-1.57,3.79-1.57Z"/>
      <path class="cls-1" d="m51.23,91.18h-15.07v-29.09c.85-14.37,12.79-25.76,27.37-25.76s27.42,12.28,27.42,27.42c0,7.59-3.09,14.47-8.07,19.44l8.49,7.99h-27.31v-15.18c2.98-.12,5.7-1.32,7.76-3.21,2.44-2.25,3.97-5.47,3.97-9.04,0-6.76-5.49-12.26-12.26-12.26s-12.27,5.49-12.27,12.26l-.04,27.43Z"/>
      <path class="cls-2" d="m124.95,74.39c.76,55.22-66.2,82.79-104.96,43.76-11.36-11.5-17.86-27.63-17.43-43.76.26,32.75,28.43,60.81,61.19,60.29,32.76.52,60.94-27.55,61.19-60.29h0Z"/>
      <path class="cls-2" d="m103.38,82.54c-5.23,31.17-43.94,43.88-67,22.53-7.02-6.44-11.7-15.44-12.65-24.9,1.7,9.27,6.55,17.82,13.58,23.87,22.91,20.03,59.04,7.98,66.08-21.49h0Z"/>
      <g>
        <path class="cls-2" d="m15.2,95.38l7.17-3.17,1.39,3.14c.26.6.38,1.12.35,1.58-.03.46-.17.84-.43,1.16s-.6.57-1.03.76c-.37.17-.71.25-1.02.26-.31,0-.59-.04-.84-.14-.26-.1-.5-.24-.72-.41l-2.32,2.57-.77-1.74,2.13-2.26-.54-1.23-2.62,1.16-.75-1.69Zm4.64-.03l.54,1.22c.14.32.35.53.64.63.29.1.57.1.85-.03.29-.13.49-.33.58-.61s.09-.56-.04-.83l-.56-1.26-2.01.89Z"/>
        <path class="cls-2" d="m19.66,104.45l6.46-4.43,3.16,4.61-1.28.86-2.1-3.06-1.32.9,1.79,2.61-1.24.85-1.8-2.62-1.35.92,2.13,3.11-1.28.88-3.18-4.63Z"/>
        <path class="cls-2" d="m24.92,111.7l7.5-3.6,1.36,1.35-3.54,7.53-1.3-1.29.76-1.59-1.88-1.86-1.6.77-1.31-1.3Zm4.3-.32l1.29,1.28,1.33-2.63-2.62,1.35Z"/>
        <path class="cls-2" d="m33.03,119.2l4.28-6.56,1.55,1.01.17,5.82,2.61-4,1.54,1.01-4.28,6.56-1.4-.91-.18-6.12-2.75,4.21-1.55-1.01Z"/>
        <path class="cls-2" d="m46.66,126.57l2.26-7.5,3.28.99c.63.19,1.1.44,1.43.76s.53.68.6,1.09c.07.41.04.83-.09,1.28-.12.39-.27.71-.47.94s-.41.42-.66.55c-.24.13-.5.22-.78.28l.44,3.43-1.81-.55-.33-3.09-1.29-.39-.83,2.74-1.77-.53Zm3-3.54l1.27.38c.33.1.63.08.9-.08.27-.15.44-.37.53-.66.09-.31.06-.59-.09-.84s-.37-.43-.65-.52l-1.32-.4-.63,2.11Z"/>
        <path class="cls-2" d="m56.45,129.09l.84-7.79,5.55.6-.17,1.53-3.7-.4-.17,1.59,3.15.34-.16,1.5-3.16-.34-.18,1.63,3.75.41-.17,1.54-5.58-.6Z"/>
        <path class="cls-2" d="m69.14,129.62c-.74.06-1.4-.07-1.97-.37-.57-.31-1.03-.75-1.37-1.35-.35-.59-.55-1.29-.61-2.1-.06-.8.03-1.51.28-2.12.25-.61.64-1.1,1.16-1.46s1.16-.57,1.9-.63c.61-.05,1.15.03,1.65.23s.9.5,1.23.9.53.86.63,1.39l-1.93.15c-.06-.26-.16-.48-.3-.66-.14-.18-.31-.32-.51-.41-.21-.09-.44-.13-.71-.11-.31.02-.58.12-.8.3-.22.17-.38.45-.48.82-.1.37-.13.86-.08,1.47.07.92.26,1.57.57,1.95.31.38.71.55,1.18.51.27-.02.5-.1.69-.25.19-.14.33-.33.43-.56.1-.23.17-.47.19-.73l1.93-.15c-.02.39-.08.76-.19,1.13-.1.36-.27.69-.5.98-.23.29-.53.53-.92.72-.39.19-.87.3-1.46.35Z"/>
        <path class="cls-2" d="m77.78,128.1l-.85-3.16-3.83-3.69,1.93-.52,2.4,2.44.82-3.31,1.95-.52-1.47,5.12.85,3.16-1.78.48Z"/>
        <path class="cls-2" d="m87.88,124.55c-.67.32-1.33.44-1.97.36-.64-.08-1.23-.33-1.77-.76-.54-.43-.98-1.01-1.33-1.74-.35-.72-.52-1.42-.5-2.08.01-.66.2-1.25.55-1.78.35-.53.87-.95,1.54-1.27.55-.26,1.09-.39,1.62-.37.53.01,1.02.14,1.47.4.44.25.81.61,1.09,1.07l-1.74.83c-.15-.22-.32-.38-.52-.51-.19-.12-.4-.19-.63-.2-.22-.01-.46.04-.7.16-.28.14-.5.32-.64.57s-.2.56-.15.94c.04.38.19.85.45,1.4.4.83.81,1.37,1.24,1.61.43.24.86.26,1.28.05.24-.12.43-.28.55-.48.12-.2.19-.43.21-.68.01-.25-.01-.5-.09-.75l1.74-.84c.12.37.2.74.23,1.12.03.38,0,.74-.11,1.1-.11.35-.3.69-.6,1-.29.31-.71.59-1.24.85Z"/>
        <path class="cls-2" d="m93.99,121.02l-4.59-6.35,1.5-1.08,3.7,5.1,2.65-1.92.9,1.24-4.15,3Z"/>
        <path class="cls-2" d="m100.64,115.77l-5.4-5.68,1.34-1.27,5.4,5.68-1.34,1.27Z"/>
        <path class="cls-2" d="m104.8,111.67l-6.22-4.76,1.12-1.47,5.81.27-3.8-2.9,1.12-1.46,6.22,4.76-1.01,1.32-6.11-.28,3.99,3.05-1.12,1.47Z"/>
        <path class="cls-2" d="m112.73,99.61c-.32.66-.74,1.16-1.27,1.51s-1.14.53-1.81.54c-.67.01-1.37-.16-2.09-.5-.74-.35-1.32-.8-1.73-1.35s-.65-1.14-.71-1.79c-.06-.65.07-1.31.39-1.97.21-.45.48-.82.78-1.12.31-.3.65-.52,1.01-.67.36-.15.73-.22,1.1-.22s.72.07,1.05.22l-.83,1.75c-.23-.05-.46-.07-.68-.04-.22.03-.43.11-.61.23-.19.13-.34.31-.45.55-.13.27-.18.56-.14.86.04.3.18.59.44.88.26.29.66.57,1.21.83.45.22.84.35,1.17.39.33.04.61.03.85-.05.23-.08.43-.19.58-.35s.27-.33.36-.51c.08-.17.13-.34.14-.51.01-.16,0-.32-.04-.46s-.1-.27-.17-.39c-.07-.11-.16-.21-.25-.28l-.31-.24-.64,1.35-1.13-.54,1.49-3.09,3.72,1.77-.53,1.11-.85-.41c.08.19.16.4.22.64s.09.52.06.82c-.02.31-.13.65-.31,1.04Z"/>
      </g>
    </g>
  </g>
</svg>